<svg xmlns="http://www.w3.org/2000/svg" width="2666.667" height="2666.667" version="1" viewBox="0 0 2000 2000"><path d="M1357.9 578.4c-.2.2-3.2.6-6.7.9-9.4.9-20.6 4.3-30.7 9.4-4.9 2.5-9.2 4.8-9.5 5.1-.3.4-2.3 1.9-4.6 3.4-6.5 4.2-17.8 16.1-23.8 25.1-12.9 19.4-18.3 41.7-15.5 64.2 4 31.7 27.4 63 57.2 76.4 13.9 6.3 22.2 8.2 36.2 8.6 12.6.3 21.5-.7 33-3.6 25.1-6.3 43.1-17.6 56.5-35.4 21.2-28.1 25.2-67.3 10.2-99.5-3.7-7.9-9.4-15.3-19-24.8-10.2-10-18.7-16.2-27.7-20.3-7.1-3.2-22.1-7.5-29.5-8.4-5.8-.7-25.6-1.6-26.1-1.1zM1701.8 578.5c-.2.2-3.2.6-6.8 1-8.3.9-22.7 5.6-31 10.2-40.4 22-60.5 66.8-49 108.9 9.2 33.7 39 63 71.5 70.4 2.8.7 5.9 1.4 7 1.6 1.1.3 7 .6 13.2.8 33.3.8 65.3-11.8 83.8-32.9 12.2-14 20.9-32.8 23.3-50.5.4-3 .6-10.7.5-17-.2-16.3-4.4-31.3-12.4-44.6-6.7-11-26.3-29.7-38.1-36.3-7.5-4.1-21-8.2-34.8-10.7-3.7-.6-26.6-1.4-27.2-.9zM599.9 619.5c-.2.2-2.4.6-4.9 1-9.5 1.5-17.2 4-26.5 8.8-25.3 12.9-43.8 35.1-54.3 64.9-3.9 10.9-10.8 33.6-16.2 53.3-2.3 8.2-6 21.5-8.2 29.5-2.2 8-4.1 14.9-4.3 15.5-.5 2.4-1.9 7.7-4.6 17.5-1.6 5.8-3.1 11.4-3.4 12.5-.2 1.1-1.3 5.6-2.5 10s-2.3 8.7-2.5 9.5c-.2.8-3.3 12.3-6.8 25.5-5.7 21.1-9.5 35.8-19.1 72.5-8.8 33.4-11.8 45.1-15.1 57.5-2 7.7-3.9 14.7-4 15.5-.2.8-3.8 14.5-8 30.5-4.2 15.9-7.9 29.7-8.1 30.5-.2.8-2.1 8.2-4.3 16.5-2.1 8.2-7.1 27.4-11.1 42.5-19.3 74.1-18.8 72.4-19.1 69.4-.1-1.2-.5-2.8-2.2-9.4-1.6-5.6-13.4-51.9-14.2-55.5-.2-1.1-.9-3.8-1.5-6s-1.2-4.7-1.4-5.5c-4.8-19.2-20.9-82.3-21.6-84.5-.5-1.7-1.1-4.1-1.4-5.5-.3-1.4-1.5-6.1-2.6-10.5-1.2-4.4-2.5-9.6-2.9-11.5-.5-1.9-1.6-6.4-2.6-10-.9-3.6-1.9-7.2-2.1-8-.2-.8-3.1-12.3-6.5-25.5-3.3-13.2-6.8-26.7-7.6-30-.8-3.3-1.6-6.7-1.8-7.5-.3-.8-1.5-5.8-2.9-11-1.3-5.2-5.6-21.9-9.5-37-3.8-15.1-9-35.4-11.5-45-5.4-21.6-16.9-66.2-20.2-79-1.4-5.2-2.7-10.2-2.9-11-.2-.8-2.2-8.7-4.5-17.5s-4.3-16.7-4.5-17.5c-.6-2.9-14.9-57.7-19.8-76l-3.3-12.5-5-.6c-3.8-.5-172.6-.5-175.6 0-.8.1-1-.6 8.4 33.1 4.4 15.7 11.5 41.3 15.8 57 4.3 15.7 10.4 37.5 13.5 48.5 3.1 11 6.3 22.5 7.1 25.5.8 3 2.4 8.6 3.5 12.5 1.1 3.8 2.6 9.5 3.5 12.5.8 3 2.2 7.9 3 10.8.8 2.9 1.7 6.1 1.9 7 .2.9 1.5 5.5 2.8 10.2 3.9 13.6 7.8 27.4 8.2 29 .2.8 4.7 17 10 36 12.2 43.6 12.7 45.4 16 57.5 2.6 9.7 11 39.8 14 50 1.2 4.2 2.7 9.7 4.1 15 .1.5 3.3 11.6 6.9 24.5 3.7 12.9 7.7 27.3 9 32 1.3 4.7 5.1 18.2 8.5 30 3.4 11.8 6.3 22.2 6.5 23 .6 2.8 12.7 45.5 15.1 53.5 1.3 4.4 5.1 17.7 8.5 29.5 13.1 46.4 27.2 93.3 32.5 108.5 2.8 7.9 9.4 21.8 10.6 22.3.4.2.8.8.8 1.3 0 .6 1.9 3.8 4.2 7.2 14.9 22.2 34.7 39.8 56.1 50.1 17.3 8.3 25.7 10 50.2 10 27.3-.1 40.6-2.8 57.4-12.1 29.1-15.8 51.2-44.2 65.3-83.7 2.9-8.2 21.2-70.2 25.1-85.1.3-1.1 4.3-15.7 9-32.5 18.8-67.3 54.2-195.7 55.2-200 .2-.8 2-7.4 4-14.5 2-7.2 3.8-13.7 4-14.5.3-.8 2.7-9.6 5.5-19.5s5.3-18.7 5.5-19.5c.2-.8 1.3-4.7 2.4-8.5 2.2-8 14.2-49.3 16.6-57.3.9-3 1.8-5.2 2.1-4.9.6.5 5.3 17.3 13.9 48.7 3.6 13.5 7.2 26.5 7.9 29 .8 2.5 3.5 12.4 6.1 22 2.5 9.6 6.2 23.1 8.2 30 1.9 6.9 3.7 13.4 3.9 14.4.2 1 .8 3.3 1.3 5 .6 1.7 2 6.7 3.1 11.1 1.2 4.4 2.8 10.4 3.6 13.2.8 2.9 2 7.7 2.8 10.5.8 2.9 5.5 20.4 10.6 38.8 5 18.4 9.8 35.7 10.5 38.5 2.9 10.7 7.6 27.9 13.5 49 3.4 12.1 6.8 24.2 7.5 27 .8 2.7 2.6 9.3 4 14.5 1.5 5.2 3.1 10.8 3.5 12.5.8 2.9 11 38.2 16.5 57 13.5 46.4 24.4 71.1 38 86.4 4.3 4.8 11.1 11.7 18.3 18.3 21 19.4 43.9 27 79.2 26.2 20.2-.4 24.6-1.1 38.9-6.1 30.1-10.4 58.3-37.2 74.6-70.8 3.7-7.7 13.1-33.9 16.3-45.5.5-1.9 4.5-15.4 8.9-30s9.7-32.4 11.8-39.5c2-7.2 4.8-16.8 6.2-21.5 4.8-16.2 6.3-21.6 12.9-44.5 3.6-12.7 7.2-25.3 7.9-28 .7-2.8 4.3-15.4 7.8-28 3.6-12.7 10.2-36.1 14.7-52 4.4-16 9.6-34.4 11.5-41 3.8-13.2 22.4-80 28.5-102 4.6-16.9 14.5-52.1 16.5-59 .8-2.8 7.7-27.7 15.4-55.5s17.4-62.6 21.6-77.4c4.2-14.9 8-28.6 8.5-30.5.4-2 2.4-9.2 4.4-16.1 12.9-45.2 13.4-47.5 11.7-48.5-1-.6-33.1-1-91-1h-89.4l-10.9 42.5c-6 23.4-11.1 43.6-11.4 45-.3 1.4-1.6 6.5-2.9 11.5-3.2 12.2-12.6 48.5-13 50.9-.3 1-1.4 5.5-2.6 10-1.9 7.3-6.4 24.9-7.3 28.6-.2.8-1.8 7.1-3.6 14s-3.3 13.2-3.5 14c-.2.8-2 7.8-4 15.5s-3.8 14.7-4 15.5c-.5 2.5-14.4 56.6-17.7 68.9-1.6 6.3-3.1 12.1-3.3 13-.4 1.9-13.4 53-17.6 69-1.7 6.3-4.6 17.4-6.4 24.5-1.8 7.2-5 19.4-7 27.1-2 7.7-5.7 21.6-8.1 31-2.5 9.3-4.7 17.7-4.8 18.5-.4 1.3-2.7 10-7.3 27-.8 3-1.6 6.2-1.8 7-.2 1.2-6.2 22.9-10.2 37.2-.9 2.9-1.9 2-3-2.5-.6-2.3-2.9-11.2-5.1-19.7-9.8-37-13.4-50.6-13.7-52-.2-.8-1.3-5.1-2.5-9.5s-3.2-12.3-4.6-17.5c-1.4-5.2-3.4-12.7-4.4-16.5-1-3.9-4.2-16-7.1-27-2.8-11-7.1-27.4-9.5-36.5-8.1-30.7-17.5-66.5-17.9-68-.5-2.4-8.2-31.9-10-38.5-.9-3.3-3-11.2-4.6-17.5-5.4-20.7-17.9-67.9-26.4-99.5-4.6-17.1-9.1-33.5-9.9-36.5-3.1-11.7-11.6-41-14.5-50.2-9.9-32-23.1-52-44.2-67.5-9.9-7.3-27.1-14.8-38.4-16.8-4.1-.8-48-1.7-48.6-1zM1283.5 1140.8l.1 275.7 85.6.2c79.1.1 85.6 0 86-1.5.3-1.4.2-545-.1-548.9-.1-1-18.9-1.2-85.8-1.2h-85.8v275.7zM1629 1140.9v275.9l85.8-.2 85.7-.1.2-275.7.1-275.7H1629v275.8zM1845.7 1352.7c-1.1 1.1-.8 5.8.6 7.6 1 1.5 2.9 1.8 10.2 1.8h9v54.7h5.7c3.5-.1 5.9-.5 5.9-1.2.1-.6.2-12.8.3-27.1l.1-26 9-.3c10.1-.3 11.3-1.1 11.3-6.8v-3.4h-25.7c-14.2 0-26.1.3-26.4.7zM1901.9 1354v59.6l.1 3.5 6-.2 6-.2.1-9.1c.1-8.5.5-21.7.9-29.6.1-3.2.3-2.9 2.1 3 1.1 3.6 2.2 7.2 2.4 8 1.3 5.4 5.6 19.1 6.9 22.2 1.6 3.8 2.8 4.5 8.4 5.2 5 .5 4.8.9 15.4-33.7 2.7-8.8 3.6-7.7 3.8 4.8.1 6.6.3 15.8.3 20.5l.2 8.5 5.7.1c4.4.1 5.7-.2 6-1.5.2-.9.4-15.3.3-32.1v-30.5l-9-.3-9-.3-1.3 4.3c-3.6 11.8-9.5 29.9-11.4 34.5-1.9 5-3.7 6.8-3.9 4-.2-2.9-1.6-8.6-4-15.7-.4-1.4-1.4-4.5-2-7-.7-2.5-1.3-4.7-1.4-5-.1-.3-1.2-3.7-2.4-7.7l-2.3-7.2h-8.9c-8.2 0-8.9.1-9 1.9z"/></svg>